HIERARCHY
ROOT Hips
{
	OFFSET 0.000000 71.427986 0.000000
	CHANNELS 6 Xposition Yposition Zposition Xrotation Yrotation Zrotation
	JOINT Pelvis
	{
		OFFSET 0.000000 0.000000 0.000000
		CHANNELS 3 Xrotation Yrotation Zrotation
		JOINT LeftUpLeg
		{
			OFFSET 6.797100 -2.508499 -1.318700
			CHANNELS 3 Xrotation Yrotation Zrotation
			JOINT LeftLeg
			{
				OFFSET 0.069008 -29.241863 0.690200
				CHANNELS 3 Xrotation Yrotation Zrotation
				JOINT LeftFoot
				{
					OFFSET -0.069008 -29.568123 -0.266800
					CHANNELS 3 Xrotation Yrotation Zrotation
					JOINT LeftToeBase
					{
						OFFSET 3.145500 -8.631000 16.059900
						CHANNELS 3 Xrotation Yrotation Zrotation
						End Site
						{
							OFFSET 0.000000 18.501587 0.000000
						}
					}
				}
			}
			JOINT Left_ShortSleeve
			{
				OFFSET 0.265923 -10.480953 1.153800
				CHANNELS 3 Xrotation Yrotation Zrotation
				End Site
				{
					OFFSET 1.725763 19.823879 0.000000
				}
			}
		}
		JOINT RightUpLeg
		{
			OFFSET -6.797100 -2.508499 -1.318700
			CHANNELS 3 Xrotation Yrotation Zrotation
			JOINT RightLeg
			{
				OFFSET -0.082453 -29.241932 0.688000
				CHANNELS 3 Xrotation Yrotation Zrotation
				JOINT RightFoot
				{
					OFFSET 0.082453 -29.568058 -0.264600
					CHANNELS 3 Xrotation Yrotation Zrotation
					JOINT RightToeBase
					{
						OFFSET -3.115300 -8.682800 16.113400
						CHANNELS 3 Xrotation Yrotation Zrotation
						End Site
						{
							OFFSET 0.000000 18.567114 0.000000
						}
					}
				}
			}
			JOINT Right_ShortSleeve
			{
				OFFSET -0.265923 -10.480953 1.153800
				CHANNELS 3 Xrotation Yrotation Zrotation
				End Site
				{
					OFFSET -1.725766 19.823910 0.000000
				}
			}
		}
	}
	JOINT Spine
	{
		OFFSET 0.000000 13.368103 0.470500
		CHANNELS 3 Xrotation Yrotation Zrotation
		JOINT Spine1
		{
			OFFSET 0.147000 13.837402 0.538800
			CHANNELS 3 Xrotation Yrotation Zrotation
			JOINT Spine2
			{
				OFFSET 0.168000 16.242897 -1.435500
				CHANNELS 3 Xrotation Yrotation Zrotation
				JOINT Neck
				{
					OFFSET 0.217200 18.631500 -1.679100
					CHANNELS 3 Xrotation Yrotation Zrotation
					JOINT Head
					{
						OFFSET 0.000000 6.599396 1.385900
						CHANNELS 3 Xrotation Yrotation Zrotation
						JOINT Hat
						{
							OFFSET -0.532200 27.220596 -10.096100
							CHANNELS 3 Xrotation Yrotation Zrotation
							End Site
							{
								OFFSET 0.000000 22.029861 0.000000
							}
						}
						JOINT HairD
						{
							OFFSET -10.777400 17.437393 -1.325900
							CHANNELS 3 Xrotation Yrotation Zrotation
							JOINT HairD1
							{
								OFFSET -3.290299 -11.051193 1.062200
								CHANNELS 3 Xrotation Yrotation Zrotation
								End Site
								{
									OFFSET 0.000000 11.579437 0.000000
								}
							}
						}
						JOINT HairB
						{
							OFFSET -10.777400 17.437393 1.467900
							CHANNELS 3 Xrotation Yrotation Zrotation
							JOINT HairB1
							{
								OFFSET -1.561200 -12.956299 3.590200
								CHANNELS 3 Xrotation Yrotation Zrotation
								End Site
								{
									OFFSET 0.000000 13.534866 0.000000
								}
							}
						}
						JOINT HairA
						{
							OFFSET 9.713100 17.437393 1.467900
							CHANNELS 3 Xrotation Yrotation Zrotation
							JOINT HairA1
							{
								OFFSET 1.561200 -12.956299 3.590200
								CHANNELS 3 Xrotation Yrotation Zrotation
								End Site
								{
									OFFSET 0.000000 13.534866 0.000000
								}
							}
						}
						JOINT HairC
						{
							OFFSET 9.713100 17.437393 -1.325900
							CHANNELS 3 Xrotation Yrotation Zrotation
							JOINT HairC1
							{
								OFFSET 3.290300 -11.051193 1.062200
								CHANNELS 3 Xrotation Yrotation Zrotation
								End Site
								{
									OFFSET 0.000000 11.579437 0.000000
								}
							}
						}
					}
				}
				JOINT LeftShoulder
				{
					OFFSET 5.101800 15.108002 -2.763700
					CHANNELS 3 Xrotation Yrotation Zrotation
					JOINT LeftArm
					{
						OFFSET 9.825497 2.506317 -1.597400
						CHANNELS 3 Xrotation Yrotation Zrotation
						JOINT LeftForeArm
						{
							OFFSET 21.966244 0.000000 0.000000
							CHANNELS 3 Xrotation Yrotation Zrotation
							JOINT LeftHand
							{
								OFFSET 33.879036 0.000000 0.000000
								CHANNELS 3 Xrotation Yrotation Zrotation
								JOINT LeftHandThumb1
								{
									OFFSET 6.715286 -2.359680 3.363841
									CHANNELS 3 Xrotation Yrotation Zrotation
									JOINT LeftHandThumb2
									{
										OFFSET 2.507072 -1.447464 1.447461
										CHANNELS 3 Xrotation Yrotation Zrotation
										JOINT LeftHandThumb3
										{
											OFFSET 2.898338 -1.673355 1.673357
											CHANNELS 3 Xrotation Yrotation Zrotation
											End Site
											{
												OFFSET -0.295959 3.727692 -0.131651
											}
										}
									}
								}
								JOINT LeftHandIndex1
								{
									OFFSET 14.190811 -0.254547 3.840278
									CHANNELS 3 Xrotation Yrotation Zrotation
									JOINT LeftHandIndex2
									{
										OFFSET 3.551727 0.000000 -0.000000
										CHANNELS 3 Xrotation Yrotation Zrotation
										JOINT LeftHandIndex3
										{
											OFFSET 2.894196 0.000000 0.000000
											CHANNELS 3 Xrotation Yrotation Zrotation
											End Site
											{
												OFFSET -1.000603 2.690872 0.366626
											}
										}
									}
								}
								JOINT LeftHandMiddle1
								{
									OFFSET 13.776489 0.000000 0.000000
									CHANNELS 3 Xrotation Yrotation Zrotation
									JOINT LeftHandMiddle2
									{
										OFFSET 3.438232 0.000000 0.000000
										CHANNELS 3 Xrotation Yrotation Zrotation
										JOINT LeftHandMiddle3
										{
											OFFSET 3.691551 0.000000 0.000000
											CHANNELS 3 Xrotation Yrotation Zrotation
											End Site
											{
												OFFSET -1.082298 3.499527 0.457670
											}
										}
									}
								}
								JOINT LeftHandRing1
								{
									OFFSET 13.966164 -0.268127 -3.067488
									CHANNELS 3 Xrotation Yrotation Zrotation
									JOINT LeftHandRing2
									{
										OFFSET 3.162567 0.000000 0.000000
										CHANNELS 3 Xrotation Yrotation Zrotation
										JOINT LeftHandRing3
										{
											OFFSET 3.324348 0.000000 0.000000
											CHANNELS 3 Xrotation Yrotation Zrotation
											End Site
											{
												OFFSET -0.861900 3.184998 0.405154
											}
										}
									}
								}
								JOINT LeftHandPinky1
								{
									OFFSET 13.131393 -0.168503 -5.746925
									CHANNELS 3 Xrotation Yrotation Zrotation
									JOINT LeftHandPinky2
									{
										OFFSET 2.849182 0.000000 0.000000
										CHANNELS 3 Xrotation Yrotation Zrotation
										JOINT LeftHandPinky3
										{
											OFFSET 2.805038 0.000000 0.000000
											CHANNELS 3 Xrotation Yrotation Zrotation
											End Site
											{
												OFFSET -0.882500 2.642609 0.325652
											}
										}
									}
								}
							}
							JOINT Left_Sleeve
							{
								OFFSET 6.592125 -0.646545 0.805568
								CHANNELS 3 Xrotation Yrotation Zrotation
								End Site
								{
									OFFSET -0.000179 20.275787 -0.000000
								}
							}
						}
					}
				}
				JOINT RightShoulder
				{
					OFFSET -5.731700 15.108002 -2.763700
					CHANNELS 3 Xrotation Yrotation Zrotation
					JOINT RightArm
					{
						OFFSET -9.825497 2.506317 -1.597400
						CHANNELS 3 Xrotation Yrotation Zrotation
						JOINT RightForeArm
						{
							OFFSET -21.966242 0.000000 0.000000
							CHANNELS 3 Xrotation Yrotation Zrotation
							JOINT RightHand
							{
								OFFSET -33.879032 0.000000 0.000000
								CHANNELS 3 Xrotation Yrotation Zrotation
								JOINT RightHandThumb1
								{
									OFFSET -6.715286 -2.359680 3.363841
									CHANNELS 3 Xrotation Yrotation Zrotation
									JOINT RightHandThumb2
									{
										OFFSET -2.507072 -1.447464 1.447461
										CHANNELS 3 Xrotation Yrotation Zrotation
										JOINT RightHandThumb3
										{
											OFFSET -2.898338 -1.673355 1.673357
											CHANNELS 3 Xrotation Yrotation Zrotation
											End Site
											{
												OFFSET 0.295959 3.727692 -0.131651
											}
										}
									}
								}
								JOINT RightHandIndex1
								{
									OFFSET -14.190811 -0.254547 3.840278
									CHANNELS 3 Xrotation Yrotation Zrotation
									JOINT RightHandIndex2
									{
										OFFSET -3.551727 0.000000 -0.000000
										CHANNELS 3 Xrotation Yrotation Zrotation
										JOINT RightHandIndex3
										{
											OFFSET -2.894196 0.000000 0.000000
											CHANNELS 3 Xrotation Yrotation Zrotation
											End Site
											{
												OFFSET 1.000603 2.690872 0.366626
											}
										}
									}
								}
								JOINT RightHandMiddle1
								{
									OFFSET -13.776489 0.000000 0.000000
									CHANNELS 3 Xrotation Yrotation Zrotation
									JOINT RightHandMiddle2
									{
										OFFSET -3.438232 0.000000 0.000000
										CHANNELS 3 Xrotation Yrotation Zrotation
										JOINT RightHandMiddle3
										{
											OFFSET -3.691551 0.000000 0.000000
											CHANNELS 3 Xrotation Yrotation Zrotation
											End Site
											{
												OFFSET 1.082298 3.499527 0.457670
											}
										}
									}
								}
								JOINT RightHandRing1
								{
									OFFSET -13.966164 -0.268127 -3.067488
									CHANNELS 3 Xrotation Yrotation Zrotation
									JOINT RightHandRing2
									{
										OFFSET -3.162567 0.000000 0.000000
										CHANNELS 3 Xrotation Yrotation Zrotation
										JOINT RightHandRing3
										{
											OFFSET -3.324348 0.000000 0.000000
											CHANNELS 3 Xrotation Yrotation Zrotation
											End Site
											{
												OFFSET 0.861900 3.184998 0.405154
											}
										}
									}
								}
								JOINT RightHandPinky1
								{
									OFFSET -13.131393 -0.168503 -5.746925
									CHANNELS 3 Xrotation Yrotation Zrotation
									JOINT RightHandPinky2
									{
										OFFSET -2.849182 0.000000 0.000000
										CHANNELS 3 Xrotation Yrotation Zrotation
										JOINT RightHandPinky3
										{
											OFFSET -2.805038 0.000000 0.000000
											CHANNELS 3 Xrotation Yrotation Zrotation
											End Site
											{
												OFFSET 0.882500 2.642609 0.325652
											}
										}
									}
								}
							}
							JOINT Right_Sleeve
							{
								OFFSET -6.592125 -0.646545 0.805568
								CHANNELS 3 Xrotation Yrotation Zrotation
								End Site
								{
									OFFSET 0.000179 20.275787 -0.000000
								}
							}
						}
					}
				}
				JOINT Bind_Right_JacketString
				{
					OFFSET -3.534800 11.969597 7.200700
					CHANNELS 3 Xrotation Yrotation Zrotation
					JOINT Bind_Right_JacketString1
					{
						OFFSET -0.319900 -6.102600 2.794100
						CHANNELS 3 Xrotation Yrotation Zrotation
						End Site
						{
							OFFSET 0.000000 6.719452 0.000000
						}
					}
				}
				JOINT Bind_Left_JacketString
				{
					OFFSET 2.904800 11.969597 7.200700
					CHANNELS 3 Xrotation Yrotation Zrotation
					JOINT Bind_Left_JacketString1
					{
						OFFSET 0.364800 -5.904503 3.186800
						CHANNELS 3 Xrotation Yrotation Zrotation
						End Site
						{
							OFFSET 0.000000 6.719513 0.000000
						}
					}
				}
				JOINT HairE
				{
					OFFSET 5.915200 17.612701 -11.592200
					CHANNELS 3 Xrotation Yrotation Zrotation
					JOINT HairE1
					{
						OFFSET 0.289200 -7.171898 -1.284500
						CHANNELS 3 Xrotation Yrotation Zrotation
						End Site
						{
							OFFSET 0.000000 7.291756 0.000000
						}
					}
				}
				JOINT HairF
				{
					OFFSET -0.864800 17.612701 -11.592200
					CHANNELS 3 Xrotation Yrotation Zrotation
					JOINT HairF1
					{
						OFFSET 0.000000 -14.087097 -2.127501
						CHANNELS 3 Xrotation Yrotation Zrotation
						End Site
						{
							OFFSET 0.000000 14.246841 0.000000
						}
					}
				}
				JOINT HairG
				{
					OFFSET -8.087700 17.612701 -11.592200
					CHANNELS 3 Xrotation Yrotation Zrotation
					JOINT HairG1
					{
						OFFSET -0.293600 -6.081398 -0.910100
						CHANNELS 3 Xrotation Yrotation Zrotation
						End Site
						{
							OFFSET 0.000000 6.156120 0.000000
						}
					}
				}
			}
		}
	}
	JOINT Pouch
	{
		OFFSET 0.000000 4.394501 10.847300
		CHANNELS 3 Xrotation Yrotation Zrotation
		End Site
		{
			OFFSET 0.000000 21.880577 0.000000
		}
	}
	JOINT Bag
	{
		OFFSET -13.229000 4.813004 -0.593300
		CHANNELS 3 Xrotation Yrotation Zrotation
		End Site
		{
			OFFSET 0.000000 21.880577 0.000000
		}
	}
	JOINT OccupyGuyFacialAnim_Joint
	{
		OFFSET 1.000000 -70.206398 -1.655000
		CHANNELS 3 Xrotation Yrotation Zrotation
		End Site
		{
			OFFSET 0.000000 21.880577 0.000000
		}
	}
}
MOTION
Frames: 5
Frame Time: 0.016667
-0.069887 70.108948 1.430629 1.893937 -2.200633 -0.199324 0.000000 -0.000000 0.000000 -4.290684 -4.454960 9.630235 13.192819 -0.143906 -1.558240 -8.644735 14.622037 -8.244238 0.000000 0.000000 -0.000000 -0.000000 0.000000 -0.000000 -4.123979 -5.418270 -8.453010 14.712810 -0.137812 0.088882 -11.154542 -10.923428 7.527766 -0.000000 -0.000002 -0.000000 -0.000000 0.000001 -0.000000 2.070753 0.288761 0.955422 3.430434 -0.015269 0.185037 3.430502 0.005499 0.178976 -3.527218 -0.011364 -0.032778 -2.723275 -0.261568 0.276206 -0.000000 -0.000000 -0.000000 -0.000000 -0.000000 -0.000000 -0.000000 -0.000000 0.000000 -0.000000 -0.000000 0.000000 -0.000000 -0.000000 -0.000000 -0.000000 -0.000000 0.000000 -0.000000 -0.000000 -0.000000 -0.000000 -0.000000 -0.000000 -0.000000 -0.000000 -0.000000 0.742838 8.952361 -13.053728 10.737608 -6.254792 -54.002611 -0.000002 -32.994246 0.000001 3.018199 -1.471488 -4.081432 -0.482888 3.821567 13.866293 21.372756 38.839830 0.020874 0.000000 0.000002 0.000001 1.076662 5.650987 -31.107099 2.579631 4.853678 -55.959012 0.000000 0.000002 0.000002 2.297561 7.098891 -41.286605 3.978834 5.544421 -71.308022 0.000001 -0.000001 0.000001 2.297561 7.098859 -41.286608 3.978835 5.544439 -71.308022 0.000000 0.000000 0.000000 2.296091 7.100169 -41.286424 3.978843 5.544435 -71.308022 0.000000 0.000002 -0.000000 0.000001 -0.000000 -0.000003 1.078068 -8.352865 11.371666 3.407869 18.890958 61.317333 -0.000004 23.538787 0.000017 1.182690 -2.960228 -1.406701 -5.104756 0.227804 -17.972097 16.981338 -29.890878 7.725582 -0.000002 0.000001 0.000004 0.285284 -3.752865 14.876237 3.775950 -4.573201 79.081283 -0.000001 0.000001 0.000000 1.456655 -5.863616 32.031600 4.654521 -4.657164 89.967354 0.000001 0.000001 -0.000001 1.456651 -5.863595 32.031586 4.654529 -4.657176 89.967368 0.000001 -0.000001 0.000001 1.456654 -5.863615 32.031583 4.654525 -4.657178 89.967368 -0.000001 0.000000 -0.000001 0.000002 0.000000 -0.000002 0.000000 -0.000000 -0.000000 0.000000 0.000000 -0.000000 0.000000 -0.000000 -0.000000 0.000000 -0.000000 -0.000000 0.000000 -0.000000 -0.000000 0.000000 0.000000 -0.000000 0.000000 -0.000000 -0.000000 0.000000 -0.000000 -0.000000 0.000000 -0.000000 -0.000000 0.000000 0.000000 -0.000000 0.000000 -0.000000 0.000000 0.000000 -0.000000 0.000000 0.000000 -0.000000 0.000000 
-0.171541 70.146545 1.380464 1.872881 -2.362693 0.098261 -0.000000 0.000000 -0.000000 -6.325413 -4.946399 9.327025 16.943917 -0.305125 -1.562591 -8.911732 14.849456 -8.708827 -0.000000 0.000000 0.000000 -0.000000 -0.000000 0.000000 -4.309657 -5.416639 -8.685642 14.900413 -0.017836 0.077255 -11.205924 -10.840968 7.438675 -0.000000 0.000001 0.000000 0.000000 0.000000 -0.000000 2.291593 -0.002809 0.719749 3.107405 -0.084774 0.120758 3.107843 -0.065907 0.115674 -3.226256 0.031549 -0.023639 -2.059490 0.093460 0.433889 0.000000 -0.000000 -0.000000 0.000000 -0.000000 -0.000000 0.000000 -0.000000 -0.000000 0.000000 -0.000000 -0.000000 0.000000 -0.000000 -0.000000 0.000000 -0.000000 -0.000000 0.000000 -0.000000 -0.000000 0.000000 -0.000000 -0.000000 0.000000 -0.000000 -0.000000 0.736511 8.806727 -13.031569 10.933037 -6.745926 -54.051033 0.000007 -32.945288 -0.000009 3.215433 -1.441552 -4.145363 -1.226170 4.012608 13.215949 20.501605 38.197782 1.391576 0.000000 -0.000001 -0.000001 1.051748 5.612617 -30.821263 2.451664 4.765032 -54.432766 0.000000 0.000001 0.000002 2.190050 7.000238 -40.472733 3.756131 5.464382 -68.986543 -0.000001 0.000002 0.000001 2.198449 7.006895 -40.576289 3.751201 5.462505 -68.934770 -0.000001 0.000000 -0.000001 2.205385 7.014867 -40.679647 3.756130 5.464393 -68.986543 -0.000001 -0.000000 0.000001 -0.000000 0.000001 -0.000001 1.091565 -8.197193 11.485089 3.504185 18.923107 61.185982 -0.000005 23.701521 0.000007 1.551638 -2.868879 -1.163885 -5.642952 -0.147088 -17.426138 16.936697 -29.156944 6.578098 -0.000001 0.000000 0.000002 0.293425 -3.774309 15.343520 3.548758 -4.523610 76.217009 0.000001 0.000001 0.000002 1.392277 -5.779187 31.586739 4.375151 -4.648633 86.524372 0.000002 -0.000001 -0.000003 1.398787 -5.785290 31.693160 4.370831 -4.648389 86.471110 0.000000 0.000000 0.000002 1.399737 -5.794872 31.799021 4.375155 -4.648646 86.524372 0.000001 0.000001 -0.000001 -0.000000 0.000000 -0.000000 -0.000000 -0.000000 0.000000 -0.000000 0.000000 -0.000000 -0.000000 -0.000000 -0.000000 -0.000000 -0.000000 -0.000000 -0.000000 -0.000000 0.000000 -0.000000 0.000000 -0.000000 -0.000000 -0.000000 -0.000000 -0.000000 -0.000000 -0.000000 -0.000000 -0.000000 0.000000 -0.000000 0.000000 -0.000000 -0.000000 0.000000 -0.000000 -0.000000 0.000000 -0.000000 -0.000000 0.000000 -0.000000 
-0.366276 70.177353 1.329418 1.851936 -2.502629 0.412413 -0.000000 0.000000 -0.000000 -8.804780 -4.711820 9.245849 21.114391 -0.470299 -1.594921 -8.772119 14.220996 -9.432478 0.000000 -0.000000 0.000000 0.000001 0.000001 -0.000001 -4.605615 -5.382381 -8.859432 15.349662 0.097580 0.075383 -11.421436 -10.792334 7.254461 0.000000 -0.000001 0.000000 -0.000000 -0.000001 0.000000 2.559073 -0.358971 0.474334 2.747829 -0.169165 0.053064 2.748702 -0.152292 0.049086 -2.889077 0.082213 -0.012975 -1.319717 0.514194 0.602907 0.000000 -0.000000 -0.000000 0.000000 -0.000000 -0.000000 0.000000 -0.000000 -0.000000 0.000000 -0.000000 -0.000000 0.000000 -0.000000 -0.000000 0.000000 -0.000000 -0.000000 0.000000 -0.000000 -0.000000 0.000000 -0.000000 -0.000000 0.000000 -0.000000 -0.000000 0.729838 8.654327 -13.018118 11.156650 -7.294850 -54.080659 0.000000 -32.921034 -0.000006 3.429483 -1.421113 -4.175588 -2.021797 4.232557 12.518349 19.606072 37.444504 2.843488 -0.000001 0.000001 -0.000002 1.025032 5.570826 -30.510120 2.320099 4.668482 -52.832978 0.000003 0.000003 0.000000 2.077966 6.892804 -39.613250 3.527049 5.371184 -66.560699 -0.000000 0.000004 -0.000001 2.094709 6.906804 -39.824343 3.517187 5.366937 -66.455227 0.000001 0.000000 -0.000001 2.110020 6.922062 -40.035222 3.527052 5.371200 -66.560713 -0.000000 0.000000 0.000003 0.000000 0.000000 0.000003 1.096787 -8.002332 11.568713 3.614131 18.945273 61.044645 -0.000002 23.957201 0.000021 1.916265 -2.796683 -0.913630 -6.220039 -0.561316 -16.846201 16.880392 -28.337801 5.350615 0.000000 0.000000 -0.000001 0.301836 -3.796159 15.831060 3.306228 -4.457326 73.119928 0.000001 -0.000002 -0.000002 1.323355 -5.686539 31.092875 4.074444 -4.620646 82.804262 0.000001 0.000000 0.000001 1.336521 -5.699497 31.313781 4.065551 -4.619528 82.693770 0.000002 0.000000 -0.000001 1.339901 -5.718450 31.533733 4.074471 -4.620657 82.804303 -0.000001 -0.000001 0.000000 -0.000000 -0.000001 -0.000001 0.000001 -0.000000 -0.000000 0.000001 -0.000000 -0.000000 0.000001 -0.000000 -0.000000 0.000001 -0.000000 -0.000000 0.000001 -0.000000 -0.000000 0.000001 -0.000000 -0.000000 0.000001 -0.000000 -0.000000 0.000001 -0.000000 -0.000000 0.000001 -0.000000 -0.000000 0.000001 -0.000000 -0.000000 -0.000000 0.000000 -0.000000 -0.000000 0.000000 -0.000000 -0.000000 0.000000 -0.000000 
-0.588886 70.167099 1.276140 1.831493 -2.637333 0.692320 -0.000000 -0.000000 -0.000000 -13.526295 -4.161864 8.630550 29.239941 0.240478 -1.777769 -9.633551 12.915341 -8.030865 0.000000 -0.000000 0.000000 0.000001 -0.000000 0.000001 -5.108038 -5.281403 -8.996518 16.241983 0.240941 0.081732 -11.859345 -10.808684 7.050553 0.000000 -0.000001 -0.000000 -0.000000 0.000001 -0.000000 2.849123 -0.743617 0.262008 2.373875 -0.260962 -0.016101 2.375219 -0.246128 -0.018902 -2.534350 0.136653 -0.001104 -0.540678 0.969614 0.774560 0.000000 0.000000 0.000000 0.000000 0.000000 0.000000 0.000000 0.000000 0.000000 0.000000 0.000000 0.000000 0.000000 -0.000000 0.000000 0.000000 0.000000 0.000000 0.000000 -0.000000 0.000000 0.000000 0.000000 0.000000 0.000000 0.000000 0.000000 0.723121 8.496001 -13.005182 11.389997 -7.878151 -54.103988 0.000002 -32.909023 -0.000019 3.676872 -1.401133 -4.194163 -2.847535 4.478018 11.792769 18.719761 36.603844 4.328819 0.000001 0.000002 -0.000001 0.997339 5.526788 -30.182920 2.187617 4.565352 -51.187203 0.000001 -0.000001 -0.000004 1.964217 6.778792 -38.725240 3.296134 5.265513 -64.069818 0.000001 0.000002 -0.000001 1.989067 6.800745 -39.046286 3.281449 5.258385 -63.909486 -0.000001 -0.000001 -0.000001 2.012547 6.823831 -39.367192 3.296149 5.265526 -64.069838 -0.000000 -0.000001 0.000001 -0.000000 -0.000001 -0.000001 1.096977 -7.781049 11.642707 3.743079 18.979040 60.878869 0.000005 24.271407 -0.000016 2.271879 -2.732259 -0.657003 -6.820230 -1.005224 -16.249153 16.817239 -27.461885 4.075782 -0.000000 -0.000001 0.000002 0.310436 -3.818221 16.330806 3.056546 -4.374026 69.877814 -0.000003 0.000001 0.000006 1.252315 -5.588268 30.568167 3.762425 -4.570594 78.911491 0.000001 -0.000001 -0.000001 1.272044 -5.608641 30.908536 3.748860 -4.567937 78.741153 0.000001 0.000001 -0.000001 1.278696 -5.636926 31.247651 3.762437 -4.570603 78.911484 -0.000000 0.000001 0.000001 0.000001 0.000001 -0.000001 -0.000001 -0.000000 -0.000000 -0.000000 -0.000000 -0.000000 -0.000001 -0.000000 -0.000000 -0.000001 -0.000000 -0.000000 -0.000001 -0.000000 -0.000000 -0.000000 -0.000000 -0.000000 -0.000001 -0.000000 -0.000000 -0.000001 -0.000000 -0.000000 -0.000001 -0.000000 -0.000000 -0.000000 -0.000000 -0.000000 -0.000000 -0.000000 -0.000000 -0.000000 -0.000000 -0.000000 -0.000000 -0.000000 -0.000000 
-0.838457 70.123245 1.222290 1.811500 -2.779186 0.967815 -0.000000 -0.000000 0.000000 -18.147632 -3.005777 8.160039 36.696530 0.228144 -1.959719 -8.826811 10.979034 -7.837997 0.000000 -0.000000 0.000000 0.000000 0.000000 -0.000000 -5.778913 -5.088504 -9.117113 17.503147 0.425011 0.098365 -12.493605 -10.918800 6.803910 0.000000 -0.000000 -0.000000 0.000000 0.000000 -0.000001 3.157061 -1.140215 0.044337 1.995517 -0.356287 -0.085877 1.997351 -0.343516 -0.087451 -2.167618 0.192984 0.012225 0.272888 1.446353 0.944674 -0.000000 0.000000 0.000000 -0.000000 0.000000 0.000000 -0.000000 0.000000 -0.000000 -0.000000 0.000000 -0.000000 -0.000000 0.000000 0.000000 -0.000000 0.000000 -0.000000 -0.000000 0.000000 0.000000 -0.000000 0.000000 0.000000 -0.000000 0.000000 0.000000 0.716352 8.326970 -12.991418 11.631051 -8.501360 -54.118761 -0.000001 -32.909436 0.000003 3.970508 -1.376488 -4.206911 -3.703770 4.751276 11.038743 17.852965 35.665714 5.843062 0.000002 -0.000001 -0.000004 0.968651 5.480348 -29.838658 2.054417 4.455262 -49.493388 0.000003 0.000002 -0.000003 1.848985 6.657817 -37.807317 3.063955 5.146633 -61.511413 0.000002 0.000000 -0.000001 1.881672 6.688318 -38.240856 3.044542 5.136103 -61.294883 -0.000000 0.000000 -0.000001 1.913053 6.719833 -38.674286 3.063958 5.146641 -61.511400 -0.000000 0.000003 -0.000000 0.000000 -0.000001 -0.000001 1.093920 -7.533888 11.715182 3.896484 19.033857 60.675542 0.000001 24.640534 -0.000006 2.619209 -2.664687 -0.388920 -7.444105 -1.480920 -15.635514 16.746439 -26.520491 2.754833 0.000001 -0.000001 -0.000000 0.319210 -3.840483 16.842671 2.800751 -4.271911 66.485376 0.000001 0.000003 0.000004 1.179284 -5.484029 30.011127 3.440476 -4.495768 74.839810 0.000001 -0.000002 -0.000001 1.205420 -5.512457 30.476144 3.422259 -4.490808 74.607085 -0.000000 -0.000001 -0.000003 1.216197 -5.550009 30.939712 3.440488 -4.495778 74.839797 -0.000000 0.000002 0.000001 -0.000001 0.000000 -0.000001 0.000000 -0.000000 0.000000 0.000001 -0.000000 -0.000000 0.000000 -0.000000 0.000000 0.000000 -0.000000 0.000000 0.000000 -0.000000 0.000000 0.000001 -0.000000 -0.000000 0.000000 -0.000000 0.000000 0.000000 -0.000000 0.000000 0.000000 -0.000000 0.000000 0.000001 -0.000000 -0.000000 -0.000000 -0.000000 0.000000 -0.000000 -0.000000 0.000000 -0.000000 -0.000000 0.000000 
